<svg xmlns="http://www.w3.org/2000/svg" viewBox="0 0 1200 900" role="img" aria-labelledby="title desc">
  <title id="title">Michelle food truck hero visual</title>
  <desc id="desc">Red food truck, large hamburger, and pop poster colors inspired by Michelle.</desc>
  <defs>
    <pattern id="grid" width="44" height="44" patternUnits="userSpaceOnUse">
      <path d="M44 0H0v44" fill="none" stroke="#f4debd" stroke-width="2" opacity=".55"/>
    </pattern>
    <filter id="shadow" x="-20%" y="-20%" width="140%" height="140%">
      <feDropShadow dx="14" dy="14" stdDeviation="0" flood-color="#17130f" flood-opacity="1"/>
    </filter>
  </defs>
  <rect width="1200" height="900" fill="#fff8ec"/>
  <rect width="1200" height="900" fill="url(#grid)"/>
  <rect x="56" y="58" width="1088" height="784" rx="32" fill="#195013" stroke="#19140f" stroke-width="10"/>
  <circle cx="952" cy="184" r="120" fill="#ffc229" stroke="#19140f" stroke-width="8"/>
  <circle cx="203" cy="720" r="104" fill="#ef2e38" stroke="#19140f" stroke-width="8"/>
  <g filter="url(#shadow)">
    <rect x="188" y="310" width="580" height="252" rx="18" fill="#ef2e38" stroke="#19140f" stroke-width="10"/>
    <rect x="224" y="230" width="282" height="92" rx="18" fill="#ef2e38" stroke="#19140f" stroke-width="10"/>
    <rect x="736" y="390" width="190" height="172" rx="14" fill="#fff8ec" stroke="#19140f" stroke-width="10"/>
    <rect x="784" y="272" width="160" height="128" rx="12" fill="#fff8ec" stroke="#19140f" stroke-width="10"/>
    <rect x="818" y="302" width="82" height="62" rx="8" fill="#8fd0ec" stroke="#19140f" stroke-width="6"/>
    <rect x="248" y="352" width="374" height="128" rx="10" fill="#fff8ec" stroke="#19140f" stroke-width="8"/>
    <text x="284" y="430" fill="#19140f" font-family="Impact, 'Arial Black', sans-serif" font-size="72" letter-spacing="2">MICHELLE</text>
    <circle cx="340" cy="572" r="58" fill="#19140f"/>
    <circle cx="340" cy="572" r="36" fill="#fff8ec"/>
    <circle cx="758" cy="572" r="58" fill="#19140f"/>
    <circle cx="758" cy="572" r="36" fill="#fff8ec"/>
  </g>
  <g transform="translate(454 88)" filter="url(#shadow)">
    <ellipse cx="250" cy="292" rx="248" ry="74" fill="#19140f" opacity=".3"/>
    <path d="M78 222c22-86 326-92 358 0 12 34-28 72-176 72S68 256 78 222Z" fill="#c9782d" stroke="#19140f" stroke-width="10"/>
    <path d="M84 214c58-50 286-54 344 0-40-88-302-88-344 0Z" fill="#f6b451"/>
    <path d="M82 296c84 36 260 40 356 0" fill="none" stroke="#19140f" stroke-width="34" stroke-linecap="round"/>
    <path d="M92 274c92 44 260 42 336 0" fill="none" stroke="#ffc229" stroke-width="42" stroke-linecap="round"/>
    <path d="M70 318c86 48 298 50 376 0" fill="none" stroke="#75b94c" stroke-width="38" stroke-linecap="round"/>
    <path d="M92 346c68 44 266 50 334 0 12 48-78 92-168 92S80 396 92 346Z" fill="#c9782d" stroke="#19140f" stroke-width="10"/>
    <circle cx="156" cy="192" r="8" fill="#fff8ec"/>
    <circle cx="226" cy="176" r="8" fill="#fff8ec"/>
    <circle cx="298" cy="188" r="8" fill="#fff8ec"/>
    <circle cx="366" cy="206" r="8" fill="#fff8ec"/>
  </g>
  <text x="101" y="148" fill="#ffc229" font-family="Impact, 'Arial Black', sans-serif" font-size="76">FOOD TRUCK</text>
  <text x="101" y="222" fill="#fff8ec" font-family="Impact, 'Arial Black', sans-serif" font-size="104">MICHELLE</text>
  <text x="101" y="274" fill="#fff8ec" font-family="Arial, sans-serif" font-size="30" font-weight="700">FUKUI / HAMBURGER / EVENT</text>
</svg>
